<svg version="1.1" xmlns="http://www.w3.org/2000/svg" viewBox="0 0 250 250"><desc>Created with Snap</desc><defs></defs><g transform="matrix(0.0448,0,0,0.0448,103.2745,141.3436)"><g transform="matrix(60.7285,0,0,60.7285,-2057.0621,-1275.4941)"><path d="M28.832,15.546C28.937,15.386,29,15.198,29,15c0-0.368-0.202-0.706-0.526-0.88l-1.986-1.07l-11.019,5.834  C15.321,18.961,15.161,19,15,19s-0.321-0.039-0.468-0.116L3.513,13.05l-1.986,1.07C1.202,14.294,1,14.632,1,15  c0,0.198,0.063,0.386,0.168,0.546L15,22.869L28.832,15.546z" fill="#adefd1" style=""></path><path d="M28.474,20.12l-1.986-1.07l-11.02,5.834C15.321,24.962,15.161,25,15,25s-0.321-0.039-0.468-0.116L3.513,19.05l-1.986,1.07  C1.202,20.294,1,20.632,1,21s0.202,0.706,0.526,0.88l13,7C14.674,28.96,14.837,29,15,29s0.326-0.04,0.474-0.12l13-7  C28.798,21.706,29,21.368,29,21S28.798,20.294,28.474,20.12z" fill="#adefd1" style=""></path><path d="M15,16.869l13.832-7.323C28.937,9.385,29,9.198,29,9c0-0.368-0.202-0.706-0.526-0.88l-13-7  c-0.295-0.159-0.652-0.159-0.947,0l-13,7C1.202,8.294,1,8.632,1,9c0,0.198,0.063,0.385,0.168,0.546L15,16.869z" fill="#adefd1" style=""></path><desc>Created with Snap</desc><defs></defs></g><g><g transform="matrix(1.024,0,0,-1.024,0,0)"><path d="M504 625Q512 625 509 616L491 492Q490 488 484 489Q478 490 479 493Q480 501 480 515Q480 559 459 584Q439 610 403 610L321 610Q289 610 273 605Q258 600 250 586Q243 573 237 543L199 324L328 324Q367 324 385 339Q404 355 411 394Q412 398 418 397Q424 397 423 393Q420 370 414 342L409 313Q402 272 401 262L394 220Q393 216 387 216Q381 217 382 221Q385 238 385 250Q385 278 370 290Q355 303 321 303L195 303L157 85Q153 61 153 54Q153 29 173 20Q194 12 252 12Q254 12 254 6Q254 0 252 0Q221 0 202 1L113 2L55 1Q40 0 13 0Q11 0 11 6Q11 12 13 12Q45 12 61 17Q77 22 85 36Q93 51 99 81L180 544Q184 561 184 576Q184 598 170 605Q156 613 120 613Q118 613 118 619Q118 625 120 625L504 625ZM592 -9Q574 -9 565 1Q556 12 556 36Q556 51 563 89L604 297Q607 312 607 324Q607 356 587 356Q575 356 556 344Q538 332 518 310Q517 309 515 309Q512 309 509 312Q507 316 510 318Q545 358 573 376Q601 395 626 395Q644 395 652 384Q661 374 661 350Q661 331 655 299L614 89Q611 73 611 62Q611 31 630 31Q654 31 698 75Q700 77 702 77Q705 77 707 73Q709 70 706 67Q672 28 645 9Q618 -9 592 -9ZM655 513Q635 513 623 524Q612 536 612 556Q612 575 623 586Q635 597 655 597Q675 597 686 586Q697 575 697 556Q697 536 686 524Q675 513 655 513ZM1019 395Q1038 395 1056 381Q1074 367 1074 348Q1074 333 1064 323Q1055 313 1041 313Q1030 313 1023 318Q1017 323 1010 333Q1006 338 1001 342Q996 347 990 347Q968 347 937 289Q907 231 880 150Q853 69 841 7Q840 0 831 -4Q823 -8 809 -8Q796 -8 791 -7Q787 -5 787 -2L792 21L802 74L835 259Q841 292 841 311Q841 356 817 356Q795 356 756 319L754 318Q751 318 749 321Q747 325 748 327Q779 361 805 378Q831 395 856 395Q876 395 885 382Q895 369 895 337Q895 312 887 261L866 147Q900 252 940 323Q981 395 1019 395ZM1399 354Q1399 323 1366 294Q1334 266 1279 245Q1225 224 1162 214Q1157 182 1157 159Q1157 97 1185 59Q1213 22 1264 22Q1320 22 1364 55L1366 55Q1369 55 1371 52Q1374 49 1371 46Q1301 -12 1225 -12Q1162 -12 1129 28Q1097 69 1097 133Q1097 155 1102 185Q1111 236 1144 285Q1177 335 1226 367Q1276 399 1330 399Q1363 399 1381 387Q1399 375 1399 354ZM1286 372Q1240 372 1208 331Q1177 291 1165 228Q1235 240 1278 264Q1322 288 1331 324Q1333 334 1333 338Q1333 355 1319 363Q1305 372 1286 372ZM1759 396L1761 397Q1764 397 1766 393Q1769 389 1767 387L1486 67Q1497 71 1515 71Q1540 71 1611 58Q1669 48 1684 48Q1700 48 1709 58Q1719 68 1729 94Q1729 95 1732 95Q1735 95 1738 93Q1741 92 1740 90Q1726 47 1716 27Q1707 8 1696 1Q1686 -5 1668 -5Q1643 -5 1609 1Q1575 7 1568 8Q1506 21 1469 22Q1453 22 1441 16Q1429 10 1414 -7L1413 -7Q1411 -7 1408 -3Q1405 1 1406 2L1688 323Q1679 318 1659 318Q1644 318 1621 322Q1598 326 1576 331Q1530 342 1513 342Q1497 342 1487 331Q1477 320 1466 293Q1465 290 1462 290Q1459 290 1456 292Q1454 295 1455 299Q1471 346 1481 365Q1491 384 1503 389Q1515 395 1538 394Q1559 393 1615 381Q1674 369 1704 367Q1720 367 1732 373Q1744 379 1759 396ZM1866 -9Q1848 -9 1839 1Q1830 12 1830 36Q1830 51 1837 89L1878 297Q1881 312 1881 324Q1881 356 1861 356Q1849 356 1830 344Q1812 332 1792 310Q1791 309 1789 309Q1786 309 1783 312Q1781 316 1784 318Q1819 358 1847 376Q1875 395 1900 395Q1918 395 1926 384Q1935 374 1935 350Q1935 331 1929 299L1888 89Q1885 73 1885 62Q1885 31 1904 31Q1928 31 1972 75Q1974 77 1976 77Q1979 77 1981 73Q1983 70 1980 67Q1946 28 1919 9Q1892 -9 1866 -9ZM1929 513Q1909 513 1897 524Q1886 536 1886 556Q1886 575 1897 586Q1909 597 1929 597Q1949 597 1960 586Q1971 575 1971 556Q1971 536 1960 524Q1949 513 1929 513ZM2095 -9Q2076 -9 2067 1Q2059 12 2059 37Q2059 58 2065 89L2164 619Q2166 627 2166 641Q2166 666 2146 666Q2130 666 2098 651L2096 651Q2092 651 2090 656Q2089 661 2093 662L2222 725L2224 725Q2228 725 2231 722Q2235 719 2234 717L2118 89Q2114 67 2114 61Q2114 46 2119 38Q2125 31 2134 31Q2155 31 2199 77Q2201 79 2203 79Q2206 79 2208 75Q2210 72 2207 69Q2173 29 2146 10Q2120 -9 2095 -9ZM2332 -9Q2313 -9 2304 1Q2296 12 2296 37Q2296 58 2302 89L2401 619Q2403 627 2403 641Q2403 666 2383 666Q2367 666 2335 651L2333 651Q2329 651 2327 656Q2326 661 2330 662L2459 725L2461 725Q2465 725 2468 722Q2472 719 2471 717L2355 89Q2351 67 2351 61Q2351 46 2356 38Q2362 31 2371 31Q2392 31 2436 77Q2438 79 2440 79Q2443 79 2445 75Q2447 72 2444 69Q2410 29 2383 10Q2357 -9 2332 -9ZM2887 77Q2888 78 2890 78Q2893 78 2895 74Q2897 71 2895 69Q2861 30 2834 10Q2808 -9 2783 -9Q2766 -9 2757 1Q2749 12 2749 36Q2749 56 2755 89L2773 193Q2727 100 2669 43Q2612 -13 2559 -13Q2497 -13 2497 61Q2497 69 2499 91Q2509 162 2552 234Q2595 306 2653 352Q2711 399 2762 399Q2781 399 2799 392Q2817 385 2828 371Q2846 386 2852 407Q2853 410 2859 409Q2865 408 2864 406L2806 89Q2803 74 2803 62Q2803 31 2821 31Q2843 31 2887 77ZM2595 36Q2631 36 2671 73Q2712 110 2744 166Q2776 223 2787 277Q2790 290 2789 300Q2789 330 2773 347Q2758 364 2727 364Q2692 363 2655 332Q2619 302 2592 250Q2565 199 2556 136Q2553 114 2553 96Q2553 36 2595 36Z" fill="#00203f" style=""></path></g></g></g></svg>